<mxfile host="app.diagrams.net" modified="2023-04-05T11:17:27.689Z" agent="Mozilla/5.0 (Windows NT 10.0; Win64; x64; rv:109.0) Gecko/20100101 Firefox/111.0" etag="xx3gvD2op8Uw9Hyaud7O" version="21.1.4" type="github">
  <diagram name="Use case" id="vxlq_Iw7_jDQBmnDgqeb">
    <mxGraphModel dx="1050" dy="576" grid="1" gridSize="10" guides="1" tooltips="1" connect="1" arrows="1" fold="1" page="1" pageScale="1" pageWidth="827" pageHeight="1169" math="0" shadow="0">
      <root>
        <mxCell id="0" />
        <mxCell id="1" parent="0" />
        <mxCell id="npOzbcBbceT49V6JMsMr-1" value="DeviceSync" style="shape=umlFrame;whiteSpace=wrap;html=1;pointerEvents=0;recursiveResize=0;container=1;collapsible=0;width=160;" vertex="1" parent="1">
          <mxGeometry x="190" width="470" height="580" as="geometry" />
        </mxCell>
        <mxCell id="npOzbcBbceT49V6JMsMr-5" value="Подключение" style="ellipse;whiteSpace=wrap;html=1;" vertex="1" parent="npOzbcBbceT49V6JMsMr-1">
          <mxGeometry x="60" y="60" width="120" height="40" as="geometry" />
        </mxCell>
        <mxCell id="npOzbcBbceT49V6JMsMr-6" value="Отправка файла" style="ellipse;whiteSpace=wrap;html=1;" vertex="1" parent="npOzbcBbceT49V6JMsMr-1">
          <mxGeometry x="84" y="160" width="120" height="40" as="geometry" />
        </mxCell>
        <mxCell id="npOzbcBbceT49V6JMsMr-7" value="Отправкасообщения" style="ellipse;whiteSpace=wrap;html=1;" vertex="1" parent="npOzbcBbceT49V6JMsMr-1">
          <mxGeometry x="110" y="280" width="120" height="40" as="geometry" />
        </mxCell>
        <mxCell id="npOzbcBbceT49V6JMsMr-14" value="Отправка команды" style="ellipse;whiteSpace=wrap;html=1;" vertex="1" parent="npOzbcBbceT49V6JMsMr-1">
          <mxGeometry x="84" y="350" width="120" height="40" as="geometry" />
        </mxCell>
        <mxCell id="npOzbcBbceT49V6JMsMr-16" value="Сообщение об ошибке подключения" style="ellipse;whiteSpace=wrap;html=1;" vertex="1" parent="npOzbcBbceT49V6JMsMr-1">
          <mxGeometry x="280" y="20" width="130" height="50" as="geometry" />
        </mxCell>
        <mxCell id="npOzbcBbceT49V6JMsMr-19" value="&amp;lt;&amp;lt;extend&amp;gt;&amp;gt;" style="html=1;verticalAlign=bottom;labelBackgroundColor=none;endArrow=open;endFill=0;dashed=1;rounded=0;exitX=0;exitY=0.5;exitDx=0;exitDy=0;entryX=1;entryY=0.5;entryDx=0;entryDy=0;" edge="1" parent="npOzbcBbceT49V6JMsMr-1" source="npOzbcBbceT49V6JMsMr-16" target="npOzbcBbceT49V6JMsMr-5">
          <mxGeometry width="160" relative="1" as="geometry">
            <mxPoint x="250" y="210" as="sourcePoint" />
            <mxPoint x="410" y="210" as="targetPoint" />
          </mxGeometry>
        </mxCell>
        <mxCell id="npOzbcBbceT49V6JMsMr-37" style="edgeStyle=orthogonalEdgeStyle;rounded=0;orthogonalLoop=1;jettySize=auto;html=1;exitX=1;exitY=1;exitDx=0;exitDy=0;entryX=1;entryY=0.5;entryDx=0;entryDy=0;endArrow=block;endFill=0;" edge="1" parent="npOzbcBbceT49V6JMsMr-1" source="npOzbcBbceT49V6JMsMr-33" target="npOzbcBbceT49V6JMsMr-35">
          <mxGeometry relative="1" as="geometry" />
        </mxCell>
        <mxCell id="npOzbcBbceT49V6JMsMr-33" value="Статус отправляемого файла" style="ellipse;whiteSpace=wrap;html=1;" vertex="1" parent="npOzbcBbceT49V6JMsMr-1">
          <mxGeometry x="310" y="145" width="120" height="45" as="geometry" />
        </mxCell>
        <mxCell id="npOzbcBbceT49V6JMsMr-34" value="&amp;lt;&amp;lt;include&amp;gt;&amp;gt;" style="html=1;verticalAlign=bottom;labelBackgroundColor=none;endArrow=open;endFill=0;dashed=1;rounded=0;exitX=1;exitY=0.5;exitDx=0;exitDy=0;entryX=0;entryY=0.5;entryDx=0;entryDy=0;" edge="1" parent="npOzbcBbceT49V6JMsMr-1" source="npOzbcBbceT49V6JMsMr-6" target="npOzbcBbceT49V6JMsMr-33">
          <mxGeometry width="160" relative="1" as="geometry">
            <mxPoint x="220" y="220" as="sourcePoint" />
            <mxPoint x="380" y="220" as="targetPoint" />
          </mxGeometry>
        </mxCell>
        <mxCell id="npOzbcBbceT49V6JMsMr-35" value="Сообщение об ошибке отправки" style="ellipse;whiteSpace=wrap;html=1;" vertex="1" parent="npOzbcBbceT49V6JMsMr-1">
          <mxGeometry x="250" y="220" width="120" height="60" as="geometry" />
        </mxCell>
        <mxCell id="npOzbcBbceT49V6JMsMr-36" value="&amp;lt;&amp;lt;extend&amp;gt;&amp;gt;" style="html=1;verticalAlign=bottom;labelBackgroundColor=none;endArrow=open;endFill=0;dashed=1;rounded=0;entryX=1;entryY=1;entryDx=0;entryDy=0;exitX=0;exitY=0.5;exitDx=0;exitDy=0;" edge="1" parent="npOzbcBbceT49V6JMsMr-1" source="npOzbcBbceT49V6JMsMr-35" target="npOzbcBbceT49V6JMsMr-6">
          <mxGeometry width="160" relative="1" as="geometry">
            <mxPoint x="170" y="250" as="sourcePoint" />
            <mxPoint x="330" y="250" as="targetPoint" />
          </mxGeometry>
        </mxCell>
        <mxCell id="npOzbcBbceT49V6JMsMr-38" value="Отправка действия" style="ellipse;whiteSpace=wrap;html=1;" vertex="1" parent="npOzbcBbceT49V6JMsMr-1">
          <mxGeometry x="70" y="410" width="126" height="40" as="geometry" />
        </mxCell>
        <mxCell id="npOzbcBbceT49V6JMsMr-43" style="edgeStyle=orthogonalEdgeStyle;rounded=0;orthogonalLoop=1;jettySize=auto;html=1;exitX=0.5;exitY=0;exitDx=0;exitDy=0;entryX=0.5;entryY=1;entryDx=0;entryDy=0;endArrow=block;endFill=0;" edge="1" parent="npOzbcBbceT49V6JMsMr-1" source="npOzbcBbceT49V6JMsMr-40" target="npOzbcBbceT49V6JMsMr-38">
          <mxGeometry relative="1" as="geometry" />
        </mxCell>
        <mxCell id="npOzbcBbceT49V6JMsMr-40" value="Управление воспроизведением " style="ellipse;whiteSpace=wrap;html=1;" vertex="1" parent="npOzbcBbceT49V6JMsMr-1">
          <mxGeometry x="170" y="500" width="130" height="50" as="geometry" />
        </mxCell>
        <mxCell id="npOzbcBbceT49V6JMsMr-44" style="edgeStyle=orthogonalEdgeStyle;rounded=0;orthogonalLoop=1;jettySize=auto;html=1;exitX=0.5;exitY=0;exitDx=0;exitDy=0;entryX=0.5;entryY=1;entryDx=0;entryDy=0;endArrow=block;endFill=0;" edge="1" parent="npOzbcBbceT49V6JMsMr-1" source="npOzbcBbceT49V6JMsMr-41" target="npOzbcBbceT49V6JMsMr-38">
          <mxGeometry relative="1" as="geometry" />
        </mxCell>
        <mxCell id="npOzbcBbceT49V6JMsMr-41" value="Управление слайд шоу" style="ellipse;whiteSpace=wrap;html=1;" vertex="1" parent="npOzbcBbceT49V6JMsMr-1">
          <mxGeometry x="10" y="500" width="130" height="50" as="geometry" />
        </mxCell>
        <mxCell id="npOzbcBbceT49V6JMsMr-28" style="edgeStyle=none;rounded=0;orthogonalLoop=1;jettySize=auto;html=1;exitX=0.5;exitY=0.5;exitDx=0;exitDy=0;exitPerimeter=0;entryX=0;entryY=0.5;entryDx=0;entryDy=0;" edge="1" parent="1" source="npOzbcBbceT49V6JMsMr-2" target="npOzbcBbceT49V6JMsMr-5">
          <mxGeometry relative="1" as="geometry" />
        </mxCell>
        <mxCell id="npOzbcBbceT49V6JMsMr-29" style="edgeStyle=none;rounded=0;orthogonalLoop=1;jettySize=auto;html=1;exitX=0.5;exitY=0.5;exitDx=0;exitDy=0;exitPerimeter=0;entryX=0;entryY=0.5;entryDx=0;entryDy=0;" edge="1" parent="1" source="npOzbcBbceT49V6JMsMr-2" target="npOzbcBbceT49V6JMsMr-6">
          <mxGeometry relative="1" as="geometry" />
        </mxCell>
        <mxCell id="npOzbcBbceT49V6JMsMr-30" style="edgeStyle=none;rounded=0;orthogonalLoop=1;jettySize=auto;html=1;exitX=0.5;exitY=0.5;exitDx=0;exitDy=0;exitPerimeter=0;entryX=0;entryY=0.5;entryDx=0;entryDy=0;" edge="1" parent="1" source="npOzbcBbceT49V6JMsMr-2" target="npOzbcBbceT49V6JMsMr-7">
          <mxGeometry relative="1" as="geometry" />
        </mxCell>
        <mxCell id="npOzbcBbceT49V6JMsMr-32" style="edgeStyle=none;rounded=0;orthogonalLoop=1;jettySize=auto;html=1;exitX=0.5;exitY=0.5;exitDx=0;exitDy=0;exitPerimeter=0;entryX=0;entryY=0.5;entryDx=0;entryDy=0;" edge="1" parent="1" source="npOzbcBbceT49V6JMsMr-2" target="npOzbcBbceT49V6JMsMr-14">
          <mxGeometry relative="1" as="geometry" />
        </mxCell>
        <mxCell id="npOzbcBbceT49V6JMsMr-39" style="edgeStyle=none;rounded=0;orthogonalLoop=1;jettySize=auto;html=1;exitX=0.5;exitY=0.5;exitDx=0;exitDy=0;exitPerimeter=0;entryX=0;entryY=0.5;entryDx=0;entryDy=0;" edge="1" parent="1" source="npOzbcBbceT49V6JMsMr-2" target="npOzbcBbceT49V6JMsMr-38">
          <mxGeometry relative="1" as="geometry" />
        </mxCell>
        <mxCell id="npOzbcBbceT49V6JMsMr-2" value="Mobile client " style="shape=umlActor;verticalLabelPosition=bottom;verticalAlign=top;html=1;" vertex="1" parent="1">
          <mxGeometry x="70" y="200" width="50" height="90" as="geometry" />
        </mxCell>
        <mxCell id="npOzbcBbceT49V6JMsMr-45" style="edgeStyle=none;rounded=0;orthogonalLoop=1;jettySize=auto;html=1;exitX=0.5;exitY=0.5;exitDx=0;exitDy=0;exitPerimeter=0;entryX=1;entryY=1;entryDx=0;entryDy=0;" edge="1" parent="1" source="npOzbcBbceT49V6JMsMr-15" target="npOzbcBbceT49V6JMsMr-5">
          <mxGeometry relative="1" as="geometry">
            <Array as="points">
              <mxPoint x="580" y="120" />
            </Array>
          </mxGeometry>
        </mxCell>
        <mxCell id="npOzbcBbceT49V6JMsMr-46" style="edgeStyle=none;rounded=0;orthogonalLoop=1;jettySize=auto;html=1;exitX=0.5;exitY=0.5;exitDx=0;exitDy=0;exitPerimeter=0;entryX=0.5;entryY=1;entryDx=0;entryDy=0;" edge="1" parent="1" source="npOzbcBbceT49V6JMsMr-15" target="npOzbcBbceT49V6JMsMr-6">
          <mxGeometry relative="1" as="geometry">
            <Array as="points">
              <mxPoint x="460" y="290" />
            </Array>
          </mxGeometry>
        </mxCell>
        <mxCell id="npOzbcBbceT49V6JMsMr-47" style="edgeStyle=none;rounded=0;orthogonalLoop=1;jettySize=auto;html=1;exitX=0.5;exitY=0.5;exitDx=0;exitDy=0;exitPerimeter=0;entryX=1;entryY=0.5;entryDx=0;entryDy=0;" edge="1" parent="1" source="npOzbcBbceT49V6JMsMr-15" target="npOzbcBbceT49V6JMsMr-7">
          <mxGeometry relative="1" as="geometry" />
        </mxCell>
        <mxCell id="npOzbcBbceT49V6JMsMr-48" style="edgeStyle=none;rounded=0;orthogonalLoop=1;jettySize=auto;html=1;exitX=0.5;exitY=0.5;exitDx=0;exitDy=0;exitPerimeter=0;entryX=1;entryY=0;entryDx=0;entryDy=0;" edge="1" parent="1" source="npOzbcBbceT49V6JMsMr-15" target="npOzbcBbceT49V6JMsMr-40">
          <mxGeometry relative="1" as="geometry" />
        </mxCell>
        <mxCell id="npOzbcBbceT49V6JMsMr-15" value="Desktop client " style="shape=umlActor;verticalLabelPosition=bottom;verticalAlign=top;html=1;" vertex="1" parent="1">
          <mxGeometry x="740" y="220" width="50" height="90" as="geometry" />
        </mxCell>
      </root>
    </mxGraphModel>
  </diagram>
</mxfile>
